HIERARCHY
ROOT Hips
{
	OFFSET 0.000000 0.000000 0.000000
	CHANNELS 6 Xposition Yposition Zposition Zrotation Yrotation Xrotation 
	JOINT LeftUpLeg_virtual
	{
		OFFSET 0.000000 0.000000 0.000000
		CHANNELS 3 Zrotation Yrotation Xrotation
		JOINT LeftUpLeg
		{
			OFFSET 10.205400 -3.823500 0.155100
			CHANNELS 3 Zrotation Yrotation Xrotation
			JOINT LeftLeg
			{
				OFFSET 0.708757 -12.982077 0.567790
				CHANNELS 3 Zrotation Yrotation Xrotation
				JOINT LeftFoot
				{
					OFFSET -0.708756 -10.717838 -2.184338
					CHANNELS 3 Zrotation Yrotation Xrotation
					JOINT LeftToeBase
					{
						OFFSET 0.108149 -7.191104 7.560241
						CHANNELS 3 Zrotation Yrotation Xrotation
						End Site
						{
							OFFSET 0.000000 0.000000 0.000000
						}
					}
				}
			}
		}
	}
	JOINT RightUpLeg_virtual
	{
		OFFSET 0.000000 0.000000 0.000000
		CHANNELS 3 Zrotation Yrotation Xrotation
		JOINT RightUpLeg
		{
			OFFSET -10.205400 -3.823500 0.005500
			CHANNELS 3 Zrotation Yrotation Xrotation
			JOINT RightLeg
			{
				OFFSET -0.708756 -12.982134 0.610632
				CHANNELS 3 Zrotation Yrotation Xrotation
				JOINT RightFoot
				{
					OFFSET 0.708754 -10.717769 -1.945823
					CHANNELS 3 Zrotation Yrotation Xrotation
					JOINT RightToeBase
					{
						OFFSET -0.108140 -7.191069 7.372968
						CHANNELS 3 Zrotation Yrotation Xrotation
						End Site
						{
							OFFSET 0.000000 0.000000 0.000000
						}
					}
				}
			}
		}
	}
	JOINT Spine_virtual
	{
		OFFSET 0.000000 0.000000 0.000000
		CHANNELS 3 Zrotation Yrotation Xrotation
		JOINT Spine
		{
			OFFSET 0.000000 6.876099 0.125700
			CHANNELS 3 Zrotation Yrotation Xrotation
			JOINT Spine1
			{
				OFFSET 0.000000 8.022060 0.146608
				CHANNELS 3 Zrotation Yrotation Xrotation
				JOINT Spine2
				{
					OFFSET 0.000000 9.168068 0.167552
					CHANNELS 3 Zrotation Yrotation Xrotation
					JOINT Neck_virtual
					{
						OFFSET 0.000000 0.000000 0.000000
						CHANNELS 3 Zrotation Yrotation Xrotation
						JOINT Neck
						{
							OFFSET 0.000000 10.314075 0.188496
							CHANNELS 3 Zrotation Yrotation Xrotation
							JOINT Head
							{
								OFFSET 0.000000 7.643700 -2.377400
								CHANNELS 3 Zrotation Yrotation Xrotation
								End Site
								{
									OFFSET 0.000000 0.000000 0.000000
								}
							}
						}
					}
					JOINT LeftShoulder_virtual
					{
						OFFSET 0.000000 0.000000 0.000000
						CHANNELS 3 Zrotation Yrotation Xrotation
						JOINT LeftShoulder
						{
							OFFSET 4.392200 8.824978 0.174984
							CHANNELS 3 Zrotation Yrotation Xrotation
							JOINT LeftArm
							{
								OFFSET 8.771219 -2.981674 -0.026999
								CHANNELS 3 Zrotation Yrotation Xrotation
								JOINT LeftForeArm
								{
									OFFSET 8.512804 0.000000 -0.000000
									CHANNELS 3 Zrotation Yrotation Xrotation
									JOINT LeftHand
									{
										OFFSET 18.484802 0.000000 -0.000000
										CHANNELS 3 Zrotation Yrotation Xrotation
										End Site
										{
											OFFSET 0.000000 0.000000 0.000000
										}
									}
								}
							}
						}
					}
					JOINT RightShoulder_virtual
					{
						OFFSET 0.000000 0.000000 0.000000
						CHANNELS 3 Zrotation Yrotation Xrotation
						JOINT RightShoulder
						{
							OFFSET -4.392200 8.824993 0.141379
							CHANNELS 3 Zrotation Yrotation Xrotation
							JOINT RightArm
							{
								OFFSET -8.771282 -2.981682 -0.094208
								CHANNELS 3 Zrotation Yrotation Xrotation
								JOINT RightForeArm
								{
									OFFSET -8.494598 0.000000 0.000000
									CHANNELS 3 Zrotation Yrotation Xrotation
									JOINT RightHand
									{
										OFFSET -18.483803 0.000000 0.000001
										CHANNELS 3 Zrotation Yrotation Xrotation
										End Site
										{
											OFFSET 0.000000 0.000000 0.000000
										}
									}
								}
							}
						}
					}
				}
			}
		}
	}
}
MOTION
Frames: 4
Frame Time: 0.033333
24.889055 34.694916 -46.134129 179.855027 -24.836721 -179.850192 0.121688 -2.444818 7.223331 -2.045179 -11.520903 -28.262249 14.602914 13.730332 21.371452 -5.312399 8.318289 9.094717 0.000000 0.000000 0.000000 4.612711 -0.813792 5.687670 4.066755 11.212302 -18.080619 -4.966441 3.826526 18.350483 11.246297 8.953805 3.451484 0.000000 0.000000 0.000000 1.444635 0.911297 -7.128965 -0.829992 -2.542470 -12.923164 -1.992146 -2.092060 12.551072 -0.010024 0.087634 0.017774 -2.272620 0.216368 14.110127 2.274399 -4.686328 18.535267 0.000000 0.000000 0.000000 -0.565617 0.888696 11.406006 -15.566044 -12.852067 2.733625 -47.568829 20.933495 14.666380 -1.765124 -34.928693 2.000369 0.000000 0.000000 0.000000 -4.826249 1.994855 10.645132 27.210717 6.688428 6.420940 47.171769 -17.674617 16.598972 -8.584683 32.456554 -4.751759 0.000000 0.000000 0.000000 
24.899227 34.705715 -46.121128 179.752356 -24.774437 -179.747083 0.107488 -2.526170 7.343731 -1.993369 -11.240915 -28.125652 14.997005 14.405547 21.851826 -4.936904 8.693123 9.628282 0.000000 0.000000 0.000000 4.644527 -0.833458 5.751043 4.156608 11.513118 -18.319324 -4.672259 4.683861 18.072329 11.646327 9.147379 4.191367 0.000000 0.000000 0.000000 1.352978 0.900252 -7.173099 -0.851735 -2.499987 -12.926372 -1.955051 -2.080276 12.519154 -0.006324 0.122807 0.037378 -2.239507 0.195541 14.167762 2.235290 -4.717247 18.512328 0.000000 0.000000 0.000000 -0.526042 0.880360 11.438315 -15.557542 -12.839640 2.709994 -47.518900 20.773730 14.693086 -1.713004 -34.956847 1.966343 0.000000 0.000000 0.000000 -4.765093 1.974628 10.739440 27.203143 6.726669 6.369122 47.103491 -17.676145 16.488261 -8.620675 32.245272 -4.766115 0.000000 0.000000 0.000000 
24.897421 34.713043 -46.121269 179.805604 -24.853482 -179.755320 0.111997 -2.532251 7.325154 -1.947123 -11.266815 -28.190030 14.972272 14.380398 21.923965 -4.984140 8.652711 9.585290 0.000000 0.000000 0.000000 4.643496 -0.838368 5.710246 4.252693 11.433516 -18.147447 -4.721359 4.737355 17.878599 11.663718 9.092188 4.259796 0.000000 0.000000 0.000000 1.402096 0.765833 -7.157126 -0.801031 -2.430184 -12.926507 -1.936081 -2.018374 12.557638 0.028270 0.116369 0.039433 -2.294184 0.284112 14.119551 2.153668 -4.701581 18.436765 0.000000 0.000000 0.000000 -0.561096 0.960860 11.409746 -15.493680 -12.880631 2.688672 -47.489223 20.562322 14.755490 -1.727775 -34.911709 1.987736 0.000000 0.000000 0.000000 -4.807213 2.122491 10.709457 27.245983 6.717438 6.306566 47.063046 -17.673972 16.381140 -8.530414 31.956338 -4.724982 0.000000 0.000000 0.000000 
24.897909 34.721466 -46.135090 179.778516 -25.058245 -179.756099 0.075130 -2.602828 7.287700 -1.907794 -11.294058 -28.197989 14.912309 14.362843 21.985249 -5.013970 8.639312 9.593568 0.000000 0.000000 0.000000 4.565526 -0.909674 5.755878 4.385156 11.246493 -18.043174 -4.760721 4.774598 17.680390 11.721569 9.043112 4.380528 0.000000 0.000000 0.000000 1.304476 0.876161 -7.118294 -0.780504 -2.375579 -12.893063 -1.904295 -2.012458 12.543175 0.001413 0.095081 0.056113 -2.220853 0.208053 14.088602 2.041982 -4.689287 18.401424 0.000000 0.000000 0.000000 -0.549317 0.901181 11.382572 -15.415092 -12.896611 2.593169 -47.493495 20.436723 14.717277 -1.739642 -34.853226 2.021488 0.000000 0.000000 0.000000 -4.753559 2.053303 10.666795 27.280629 6.562656 6.292600 46.934581 -17.492429 16.510372 -8.671958 31.583105 -4.898461 0.000000 0.000000 0.000000 
